<?xml version="1.0" encoding="UTF-8"?>
<svg id="_图层_1" data-name="图层 1" xmlns="http://www.w3.org/2000/svg" viewBox="0 0 894 840.2">
  <defs>
    <style>
      .cls-1 {
        fill: #0871ff;
      }

      .cls-1, .cls-2, .cls-3, .cls-4 {
        stroke-width: 0px;
      }

      .cls-2 {
        fill: #0972ff;
      }

      .cls-3 {
        fill: #2dabff;
      }

      .cls-4 {
        fill: #37adff;
      }
    </style>
  </defs>
  <g>
    <rect class="cls-4" y="108.5" width="70" height="70"/>
    <rect class="cls-4" x="824" y="108.5" width="70" height="70"/>
    <rect class="cls-1" x="70" y="66.5" width="754" height="188"/>
  </g>
  <g>
    <g>
      <rect class="cls-4" x="201.83" width="80" height="137"/>
      <circle class="cls-4" cx="241.83" cy="137" r="40"/>
    </g>
    <g>
      <rect class="cls-4" x="612.17" width="80" height="137"/>
      <circle class="cls-4" cx="652.17" cy="137" r="40"/>
    </g>
  </g>
  <rect class="cls-2" x="5" y="178.5" width="65" height="590"/>
  <rect class="cls-2" x="824" y="178.5" width="65" height="590"/>
  <rect class="cls-2" x="70" y="768.88" width="754" height="71.32"/>
  <g>
    <g>
      <rect class="cls-3" x="504" y="359.5" width="208.61" height="50"/>
      <rect class="cls-3" x="504" y="490" width="208.61" height="50"/>
      <rect class="cls-3" x="504" y="620.5" width="208.61" height="50"/>
    </g>
    <rect class="cls-3" x="462.61" y="409.5" width="41.39" height="80.5"/>
    <rect class="cls-3" x="712.61" y="540" width="41.39" height="80.5"/>
  </g>
  <g>
    <g>
      <rect class="cls-3" x="181.39" y="359.5" width="208.61" height="50"/>
      <rect class="cls-3" x="181.39" y="490" width="208.61" height="50"/>
      <rect class="cls-3" x="181.39" y="620.5" width="208.61" height="50"/>
    </g>
    <rect class="cls-3" x="140" y="409.5" width="41.39" height="80.5"/>
    <rect class="cls-3" x="140" y="540" width="41.39" height="80.5"/>
  </g>
</svg>