<svg
  xmlns="http://www.w3.org/2000/svg"
  width="24" height="24"
  viewBox="0 0 24 24"
  fill="none"
  stroke-width="2"
  stroke-linecap="round"
  stroke-linejoin="round"
  class="lucide lucide-notebook-pen">

  <defs>
    <!-- 定义线性渐变：可能仅用于主要形状 -->
    <linearGradient id="oceanGradient" x1="0%" y1="0%" x2="100%" y2="100%" gradientUnits="userSpaceOnUse">
      <stop offset="0%"   stop-color="#00d4fd"/>
      <!-- <stop offset="100%" stop-color="#005bea"/> -->
      <stop offset="100%" stop-color="#0061FC"/>
    </linearGradient>
  </defs>

  <!-- 主体形状：Notebook外框 + 笔图标 -->
  <path
    d="M13.4 2H6a2 2 0 0 0-2 2v16a2 2 0 0 0 2 2h12a2 2 0 0 0 2-2v-7.4" 
    stroke="url(#oceanGradient)" 
    fill="none"
  />
  <path 
    d="M21.378 5.626a1 1 0 1 0-3.004-3.004l-5.01 5.012a2 2 0 0 0-.506.854l-.837 2.87a.5.5 0 0 0 .62.62l2.87-.837a2 2 0 0 0 .854-.506z" 
    stroke="url(#oceanGradient)" 
    fill="none"
  />

  <path d="M2 6h4" stroke="url(#oceanGradient)" stroke-width="2" fill="none"/>
  <path d="M2 10h4" stroke="url(#oceanGradient)" stroke-width="2" fill="none"/>
  <path d="M2 14h4" stroke="url(#oceanGradient)" stroke-width="2" fill="none"/>
  <path d="M2 18h4" stroke="url(#oceanGradient)" stroke-width="2" fill="none"/>

</svg>
